<svg width="19" height="19" viewBox="0 0 19 19" fill="none" xmlns="http://www.w3.org/2000/svg">
<path d="M15.8179 4.74253C15.6123 4.74866 15.4171 4.83462 15.2737 4.9822L7.12508 13.1308L4.51814 10.5239C4.44519 10.4479 4.35782 10.3872 4.26113 10.3454C4.16445 10.3036 4.0604 10.2816 3.95507 10.2805C3.84975 10.2794 3.74527 10.2994 3.64776 10.3392C3.55024 10.379 3.46165 10.4379 3.38717 10.5124C3.31269 10.5868 3.25382 10.6754 3.21401 10.7729C3.1742 10.8705 3.15424 10.9749 3.15531 11.0803C3.15639 11.1856 3.17846 11.2896 3.22025 11.3863C3.26204 11.483 3.3227 11.5704 3.39868 11.6433L6.56534 14.81C6.71382 14.9584 6.91515 15.0418 7.12508 15.0418C7.335 15.0418 7.53634 14.9584 7.68481 14.81L16.3931 6.10166C16.5075 5.99046 16.5857 5.8473 16.6173 5.69093C16.6489 5.53456 16.6326 5.37228 16.5704 5.22536C16.5082 5.07843 16.4031 4.95372 16.2689 4.86757C16.1346 4.78141 15.9774 4.73783 15.8179 4.74253Z" fill="#309546"/>
</svg>
